<?xml version="1.0" encoding="utf-8"?>
<!-- Generator: Adobe Illustrator 24.0.0, SVG Export Plug-In . SVG Version: 6.00 Build 0)  -->
<svg version="1.1" id="Capa_1" xmlns="http://www.w3.org/2000/svg" xmlns:xlink="http://www.w3.org/1999/xlink" x="0px" y="0px"
	 viewBox="0 0 200 200" style="enable-background:new 0 0 200 200;" xml:space="preserve">
<style type="text/css">
	.st0{fill:none;stroke:#606060;stroke-width:4;stroke-miterlimit:10;}
</style>
<title>1</title>
<g>
	<path class="st0" d="M63,59.9V45.3c0-9.2,7.4-16.6,16.6-16.6h53.8c9.2,0,16.6,7.4,16.6,16.6v108.8c0,9.2-7.4,16.6-16.6,16.6H79.7
		c-9.2,0-16.6-7.4-16.6-16.6v-23.6"/>
	<line class="st0" x1="63" y1="53.9" x2="150.1" y2="53.9"/>
	<line class="st0" x1="100.8" y1="41.3" x2="112.3" y2="41.3"/>
	<line class="st0" x1="63" y1="145.5" x2="150.1" y2="145.5"/>
	<line class="st0" x1="137.9" y1="79.3" x2="123.7" y2="65.1"/>
	<line class="st0" x1="139.6" y1="68.6" x2="135.1" y2="64.1"/>
	<path class="st0" d="M51.5,68.8h45.2c5.3,0,9.6,4.3,9.6,9.6V112c0,5.3-4.3,9.6-9.6,9.6h-6.1c-0.6,0-1.2,0.5-1.2,1.2v12.6
		c0,1-1.3,1.6-2,0.8L73.2,122c-0.2-0.2-0.5-0.3-0.8-0.3H51.5c-5.3,0-9.6-4.3-9.6-9.6V78.4C41.9,73.1,46.2,68.8,51.5,68.8z"/>
	<path class="st0" d="M77.5,78.7h-6.6c-1.1,0-2.1,0.9-2.1,2.1v9.3h-9.3c-1.1,0-2.1,0.9-2.1,2.1l0,6.6c0,1.1,0.9,2.1,2.1,2.1l9.3,0
		v9.3c0,1.1,0.9,2.1,2.1,2.1h6.6c1.1,0,2.1-0.9,2.1-2.1v-9.3h9.3c1.1,0,2.1-0.9,2.1-2.1v-6.6c0-1.1-0.9-2.1-2.1-2.1l-9.3,0v-9.3
		C79.5,79.7,78.6,78.7,77.5,78.7z"/>
</g>
</svg>
