<svg id="Capa_1" data-name="Capa 1" xmlns="http://www.w3.org/2000/svg" viewBox="0 0 200 200"><defs><style>.cls-1{fill:#606060;}</style></defs><title>1</title><path class="cls-1" d="M114.88,55.67H83c-.81,0-1.46-.89-1.46-2V32.3c0-1.09.65-2,1.46-2h31.87c.81,0,1.46.89,1.46,2V53.68C116.34,54.78,115.69,55.67,114.88,55.67Zm-30.41-4h29V34.29H84.47Z"/><path class="cls-1" d="M42.07,125.59H35.91a1.46,1.46,0,0,1-1.47-1.46v-7.22a1.47,1.47,0,0,1,1.47-1.46h6.16a1.46,1.46,0,0,1,1.46,1.46v7.22A1.46,1.46,0,0,1,42.07,125.59Zm-4.71-2.92h3.25v-4.29H37.36Z"/><path class="cls-1" d="M56.57,125.59H50.4a1.46,1.46,0,0,1-1.46-1.46v-7.22a1.47,1.47,0,0,1,1.46-1.46h6.17A1.46,1.46,0,0,1,58,116.91v7.22A1.46,1.46,0,0,1,56.57,125.59Zm-4.7-2.92h3.24v-4.29H51.87Z"/><path class="cls-1" d="M42.07,143.46H35.91A1.46,1.46,0,0,1,34.44,142v-7.2a1.46,1.46,0,0,1,1.47-1.46h6.16a1.46,1.46,0,0,1,1.46,1.46V142A1.46,1.46,0,0,1,42.07,143.46Zm-4.71-2.92h3.25v-4.28H37.36Z"/><path class="cls-1" d="M56.57,143.46H50.4A1.46,1.46,0,0,1,48.94,142v-7.2a1.46,1.46,0,0,1,1.46-1.46h6.17A1.46,1.46,0,0,1,58,134.8V142A1.46,1.46,0,0,1,56.57,143.46Zm-4.7-2.92h3.24v-4.28H51.87Z"/><path class="cls-1" d="M147.51,125.72h-6.17a1.46,1.46,0,0,1-1.46-1.46v-7.21a1.46,1.46,0,0,1,1.46-1.46h6.17a1.46,1.46,0,0,1,1.46,1.46v7.21A1.47,1.47,0,0,1,147.51,125.72Zm-4.71-2.92H146v-4.29H142.8Z"/><path class="cls-1" d="M162,125.72h-6.17a1.46,1.46,0,0,1-1.46-1.46v-7.21a1.46,1.46,0,0,1,1.46-1.46H162a1.46,1.46,0,0,1,1.46,1.46v7.21A1.47,1.47,0,0,1,162,125.72Zm-4.71-2.92h3.25v-4.29H157.3Z"/><path class="cls-1" d="M147.51,143.6h-6.17a1.46,1.46,0,0,1-1.46-1.46v-7.21a1.46,1.46,0,0,1,1.46-1.46h6.17a1.46,1.46,0,0,1,1.46,1.46v7.21A1.47,1.47,0,0,1,147.51,143.6Zm-4.71-2.93H146v-4.28H142.8Z"/><path class="cls-1" d="M162,143.6h-6.17a1.46,1.46,0,0,1-1.46-1.46v-7.21a1.46,1.46,0,0,1,1.46-1.46H162a1.46,1.46,0,0,1,1.46,1.46v7.21A1.47,1.47,0,0,1,162,143.6Zm-4.71-2.93h3.25v-4.28H157.3Z"/><path class="cls-1" d="M183.08,164.78H15a1.46,1.46,0,1,1,0-2.92H183.08a1.46,1.46,0,0,1,0,2.92Z"/><path class="cls-1" d="M94.38,159.14H29.53a1.46,1.46,0,1,1,0-2.92H94.38a1.46,1.46,0,1,1,0,2.92Z"/><path class="cls-1" d="M91.65,153.51a1.46,1.46,0,0,1-1-.43,1.42,1.42,0,0,1-.43-1V133.26a2,2,0,0,1,2-1.92h13.48a2,2,0,0,1,2,1.92V152a1.46,1.46,0,0,1-1.46,1.46Zm1.46-19.25v16.32h11.68V134.26Z"/><path class="cls-1" d="M134.92,153.51H106.25c-.81,0-1.46-.89-1.46-2V127.4H93.11v24.13c0,1.09-.65,2-1.46,2H63c-.71,0-1.31-.69-1.44-1.65a13,13,0,0,1-.08-1.41V60.72c0-5,3-9,6.66-9h61.66c3.67,0,6.65,4,6.65,9v89.73a12.63,12.63,0,0,1-.07,1.33C136.27,152.77,135.65,153.51,134.92,153.51Zm-27.21-4h25.8V60.72c0-2.79-1.67-5-3.73-5H68.12c-2.06,0-3.74,2.26-3.74,5v88.83H90.19V126.2c0-1.52.91-2.76,2-2.76h13.48c1.11,0,2,1.24,2,2.76Z"/><path class="cls-1" d="M168.39,153.51H135a1.46,1.46,0,0,1-1.46-1.46V109.54a3.86,3.86,0,0,1,3.86-3.86H166a3.87,3.87,0,0,1,3.87,3.86v42.51A1.47,1.47,0,0,1,168.39,153.51Zm-32-2.92h30.5v-41a1,1,0,0,0-.94-.94H137.36a1,1,0,0,0-.94.94Z"/><path class="cls-1" d="M63,153.51H29.53a1.47,1.47,0,0,1-1.47-1.46V109.27a3.87,3.87,0,0,1,3.87-3.86H60.55a3.86,3.86,0,0,1,3.86,3.86v42.78A1.46,1.46,0,0,1,63,153.51Zm-32-2.92h30.5V109.27a.94.94,0,0,0-.94-.94H31.93a.94.94,0,0,0-.94.94Z"/><path class="cls-1" d="M82.07,133.3H71.64a1.78,1.78,0,0,1-1.77-1.78V124a1.77,1.77,0,0,1,1.77-1.77H82.07A1.78,1.78,0,0,1,83.85,124v7.49A1.78,1.78,0,0,1,82.07,133.3Zm-9.28-2.93h8.13v-5.19H72.79Z"/><path class="cls-1" d="M82.07,119.34H71.64a1.77,1.77,0,0,1-1.77-1.77v-7.48a1.77,1.77,0,0,1,1.77-1.77H82.07a1.78,1.78,0,0,1,1.78,1.77v7.48A1.78,1.78,0,0,1,82.07,119.34Zm-9.28-2.92h8.13v-5.18H72.79Z"/><path class="cls-1" d="M126.25,147.24H115.82a1.78,1.78,0,0,1-1.78-1.78V138a1.78,1.78,0,0,1,1.78-1.78h10.43A1.78,1.78,0,0,1,128,138v7.47A1.78,1.78,0,0,1,126.25,147.24ZM117,144.31h8.14v-5.18H117Z"/><path class="cls-1" d="M126.25,133.3H115.82a1.78,1.78,0,0,1-1.78-1.78V124a1.78,1.78,0,0,1,1.78-1.77h10.43A1.78,1.78,0,0,1,128,124v7.49A1.78,1.78,0,0,1,126.25,133.3ZM117,130.37h8.14v-5.19H117Z"/><path class="cls-1" d="M126.25,119.34H115.82a1.78,1.78,0,0,1-1.78-1.77v-7.48a1.78,1.78,0,0,1,1.78-1.77h10.43a1.78,1.78,0,0,1,1.78,1.77v7.48A1.78,1.78,0,0,1,126.25,119.34ZM117,116.42h8.14v-5.18H117Z"/><path class="cls-1" d="M82.07,103H71.64a1.78,1.78,0,0,1-1.77-1.78V93.72A1.77,1.77,0,0,1,71.64,92H82.07a1.78,1.78,0,0,1,1.78,1.77v7.48A1.78,1.78,0,0,1,82.07,103Zm-9.28-2.93h8.13V94.87H72.79Z"/><path class="cls-1" d="M126.25,103H115.82A1.78,1.78,0,0,1,114,101.2V93.72A1.78,1.78,0,0,1,115.82,92h10.43A1.78,1.78,0,0,1,128,93.72v7.48A1.78,1.78,0,0,1,126.25,103ZM117,100.05h8.14V94.87H117Z"/><path class="cls-1" d="M82.07,147.24H71.64a1.78,1.78,0,0,1-1.77-1.78V138a1.78,1.78,0,0,1,1.77-1.78H82.07A1.78,1.78,0,0,1,83.85,138v7.47A1.78,1.78,0,0,1,82.07,147.24Zm-9.28-2.93h8.13v-5.18H72.79Z"/><path class="cls-1" d="M102.53,86.19H95.37a1.46,1.46,0,0,1-1.46-1.46V80.41H89.58a1.47,1.47,0,0,1-1.46-1.47V71.78a1.47,1.47,0,0,1,1.46-1.46h4.33V66a1.46,1.46,0,0,1,1.46-1.46h7.16A1.46,1.46,0,0,1,104,66v4.32h4.33a1.47,1.47,0,0,1,1.46,1.46v7.16a1.47,1.47,0,0,1-1.46,1.47H104v4.32A1.46,1.46,0,0,1,102.53,86.19Zm-5.7-2.93h4.24V78.94a1.47,1.47,0,0,1,1.46-1.46h4.33V73.25h-4.33a1.47,1.47,0,0,1-1.46-1.47V67.46H96.83v4.32a1.46,1.46,0,0,1-1.46,1.47H91v4.23h4.33a1.46,1.46,0,0,1,1.46,1.46Z"/><path class="cls-1" d="M168.55,164.78h-139a1.47,1.47,0,0,1-1.47-1.46V152.05a1.46,1.46,0,0,1,1.47-1.46h139a1.46,1.46,0,0,1,1.47,1.46v11.27A1.47,1.47,0,0,1,168.55,164.78ZM31,161.86h136.1v-8.35H31Z"/></svg>