<?xml version="1.0" encoding="utf-8"?>
<!-- Generator: Adobe Illustrator 24.0.0, SVG Export Plug-In . SVG Version: 6.00 Build 0)  -->
<svg version="1.1" id="Capa_1" xmlns="http://www.w3.org/2000/svg" xmlns:xlink="http://www.w3.org/1999/xlink" x="0px" y="0px"
	 viewBox="0 0 200 200" style="enable-background:new 0 0 200 200;" xml:space="preserve">
<style type="text/css">
	.st0{fill:none;stroke:#606060;stroke-width:4;stroke-miterlimit:10;}
</style>
<title>1</title>
<g id="online_medical_consultation-diagnosis_1_">
	<path class="st0" d="M38.6,159.3V83.1c0-3.9,3.2-7.1,7.1-7.1h14.3"/>
	<polyline class="st0" points="47.1,112.3 47.1,84.5 59.9,84.5 	"/>
	<path class="st0" d="M151.9,172.2c8.6,0,15-4.2,15-12.8h-47.1v4.3H81.3v-4.3H34.3c0,8.6,4.6,12.8,15,12.8H151.9z"/>
	<path class="st0" d="M77.1,112.3c0,0-1.4,10.8,15,21c0,0,15-9.3,15-21"/>
	<path class="st0" d="M77.1,112.3c-8.6,2.1-8.6,10.7-8.6,10.7v10.7"/>
	<path class="st0" d="M107,112.3c8.6,2.1,8.6,10.7,8.6,10.7v15"/>
	<path class="st0" d="M74.9,150.8h4.3v-4c0-6.7-4.6-13.1-10.7-13.1l0,0l0,0c-6.1,0-10.7,6.4-10.7,13.1v4h4.6"/>
	<circle class="st0" cx="115.6" cy="144.4" r="6.4"/>
	<line class="st0" x1="162.6" y1="159.3" x2="162.6" y2="91"/>
	<line class="st0" x1="154" y1="159.3" x2="154" y2="91"/>
	<path class="st0" d="M92,101.7c-13,0-23.5-10.5-23.5-23.5v-15c0-13,10.5-23.5,23.5-23.5c13,0,23.5,10.5,23.5,23.5v15
		c0,9.9-6.3,18.3-14.9,21.8"/>
	<path class="st0" d="M47.1,150.8v-15.5c0-11.7,5.9-19.5,15.6-21.5l14.7-2c1.9-0.3,3.9-1.7,3.9-3.9v-7.8"/>
	<path class="st0" d="M102.7,100.2v7.8c0,2.2,2,3.6,3.9,3.9l14.7,2c9.8,2,15.6,9.8,15.6,21.5v15.5"/>
	<polyline class="st0" points="117.7,43.9 117.7,39.6 166.9,39.6 166.9,82.4 144.4,82.4 128.4,95.2 128.4,82.4 124.1,82.4 	"/>
</g>
</svg>
