<?xml version="1.0" encoding="utf-8"?>
<!-- Generator: Adobe Illustrator 24.0.0, SVG Export Plug-In . SVG Version: 6.00 Build 0)  -->
<svg version="1.1" id="Capa_1" xmlns="http://www.w3.org/2000/svg" xmlns:xlink="http://www.w3.org/1999/xlink" x="0px" y="0px"
	 viewBox="0 0 200 200" style="enable-background:new 0 0 200 200;" xml:space="preserve">
<style type="text/css">
	.st0{fill:none;stroke:#606060;stroke-width:4;stroke-miterlimit:10;}
</style>
<title>1</title>
<g id="XMLID_92_">
	<line id="XMLID_140_" class="st0" x1="114.1" y1="41.5" x2="101.1" y2="43.8"/>
	<path id="XMLID_133_" class="st0" d="M101.1,43.8l-21.2-3.7c-1.5-0.3-3.1-0.4-4.7-0.4h0c-9.4,0-18.4,4.8-23,13
		c-3,5.2-5.3,12.3-5.3,21.6l0,0c0,8,2.1,15.8,6,22.7l6.1,10.6c2.9,5,4.7,10.6,5.2,16.4c1.2,13.4,5.2,26.3,11.9,38l4,7
		c1,1.8,2.9,2.9,5,2.9l0,0c3.2,0,5.8-2.6,5.8-5.8V155c0-5.6,1-11.2,3-16.5l1.6-4.3c0.9-2.4,3.2-4,5.8-4l0,0c2.7,0,5,1.7,5.9,4.2
		l1.6,4.7c1.7,5,2.6,10.2,2.6,15.4v11.7c0,3.2,2.6,5.8,5.8,5.8l0,0c2.1,0,4-1.1,5-2.9l4-7c6.7-11.7,10.8-24.7,11.9-38
		c0.5-5.8,2.3-11.3,5.2-16.4l6.1-10.6c4-6.9,6-14.8,6-22.7l0,0c0-2.2-0.1-4.3-0.4-6.3"/>
	<path id="XMLID_139_" class="st0" d="M81.4,53.3c-5.6-1.2-11.6,0.5-15.4,4.9c-0.3,0.3-0.5,0.6-0.8,1c-2.2,3-3.2,6.7-3.2,10.4"/>
	<path id="XMLID_147_" class="st0" d="M158.6,56.6c0,0-0.9,0.4-2.6,0.9c-1.7,0.5-4,1.2-6.8,1.8c-2.4,0.5-5.2,1-8.2,1.3
		c-4.5,0.5-8,4-8.5,8.5c-0.3,3-0.8,5.8-1.3,8.2c-0.6,2.8-1.2,5.2-1.8,6.8c-0.5,1.7-0.9,2.6-0.9,2.6s-0.4-0.9-0.9-2.6
		c-0.5-1.6-1.2-4-1.8-6.8c-0.5-2.5-1-5.3-1.3-8.3c-0.5-4.5-4-8-8.5-8.5c-3.1-0.3-6.3-0.7-8.2-1.1c-2.8-0.6-5.2-1.2-6.8-1.8
		c-1.6-0.5-2.6-0.9-2.6-0.9s1-0.4,2.6-0.9c1.7-0.5,4-1.2,6.8-1.8c2.4-0.5,5.2-1,8.2-1.3c4.5-0.5,8-4,8.5-8.5c0.3-3,0.8-5.8,1.3-8.2
		c0.6-2.8,1.2-5.2,1.7-6.8c0.5-1.7,0.9-2.6,0.9-2.6s0.4,0.9,0.9,2.6c0.5,1.6,1.2,4,1.7,6.8c0.5,2.5,1,5.3,1.3,8.4
		c0.5,4.5,4,8,8.5,8.5c3.1,0.3,6.3,0.7,8.2,1.1c2.8,0.6,5.2,1.2,6.8,1.8C157.7,56.2,158.6,56.6,158.6,56.6z"/>
</g>
</svg>
