<?xml version="1.0" encoding="utf-8"?>
<!-- Generator: Adobe Illustrator 24.0.0, SVG Export Plug-In . SVG Version: 6.00 Build 0)  -->
<svg version="1.1" id="Capa_1" xmlns="http://www.w3.org/2000/svg" xmlns:xlink="http://www.w3.org/1999/xlink" x="0px" y="0px"
	 viewBox="0 0 200 200" style="enable-background:new 0 0 200 200;" xml:space="preserve">
<style type="text/css">
	.st0{fill-rule:evenodd;clip-rule:evenodd;fill:none;stroke:#606060;stroke-width:4;stroke-miterlimit:10;}
</style>
<title>1</title>
<g>
	<path class="st0" d="M110.9,93.5c-1,0.4-2,0.8-3.1,1.1v5.6H96.9v-4.8c-1.9-0.1-3.6-0.3-5.1-0.6c-2.3-0.5-4.7-1.3-7.2-2.5V80.1
		c2.4,1.2,4.8,2.2,7.4,2.9c0.3,0.1,0.5,0.1,0.8,0.2c1.4,0.4,2.8,0.7,4.1,0.9c1.3,0.2,2.5,0.3,3.7,0.3c2,0,3.5-0.3,4.5-1
		c0.9-0.7,1.4-1.6,1.4-2.8c0-0.7-0.2-1.3-0.5-1.8c-0.4-0.5-1-1.1-1.9-1.6c-0.7-0.5-2.6-1.3-5.5-2.7c-0.4-0.2-0.8-0.4-1.3-0.6
		c-0.2-0.1-0.3-0.1-0.5-0.2c-2.9-1.3-5.1-2.6-6.7-3.9c-0.1-0.1-0.2-0.2-0.3-0.3c-1.7-1.4-2.9-3.1-3.7-4.9c-0.8-1.8-1.2-4-1.3-6.5
		c0-4.7,1.7-8.3,5.1-10.9c1.9-1.4,4.1-2.5,6.8-3.1v-5.6h10.9v5c4.1,0.4,8.2,1.6,12.5,3.4L116,57.5c-1.1-0.5-2.1-0.9-3.1-1.3
		c-1.8-0.7-3.5-1.2-5.1-1.6c-1.5-0.3-2.8-0.4-4.1-0.4c-1.8,0-3.1,0.3-3.9,0.9c-0.8,0.6-1.2,1.4-1.3,2.3c0,1,0.5,1.9,1.6,2.7
		c0.9,0.7,3.2,1.9,6.8,3.6c0.3,0.1,0.5,0.2,0.8,0.3c0.2,0.1,0.5,0.2,0.7,0.4c3.7,1.7,6.4,3.4,8.2,5.3c0.3,0.3,0.7,0.7,0.9,1.1
		c1.7,2.2,2.6,5.1,2.6,8.5c0,3.2-0.8,5.9-2.4,8.4C116.2,90.2,113.9,92.1,110.9,93.5z M165,120.8c-0.5,0.4-0.9,0.8-1.4,1.2
		c-6.8,5.8-13.9,11.1-21.1,15.9c-3.7,2.5-7.5,4.8-11.4,7c-8.4,4.8-18.5,6.8-30.3,6.1l-14-1c-5.5-0.5-10.2,1-14.1,4.6l-10,9.1
		L41,141.9c2.5-4.8,5.3-8.9,8.3-12.4c6.6-7.7,14.3-12.3,23.1-13.6l46.7-7.1c3.6-0.2,5.5,1.4,5.7,4.7c0.2,3.3-2.9,6.2-9.2,8.5
		l-16.6,6.1c16.4,2.9,28.2,2,35.4-2.6c16-10.3,25.7-13.1,29.3-8.5C164.3,118,164.8,119.2,165,120.8z"/>
</g>
</svg>
