<svg id="Capa_1" data-name="Capa 1" xmlns="http://www.w3.org/2000/svg" viewBox="0 0 200 200"><defs><style>.cls-1{fill:#606060;}</style></defs><title>1</title><path class="cls-1" d="M99,150a1.25,1.25,0,0,1-1.09-.63c-2.71-4.69-7-11.25-12-18.84C71.94,109.31,54.57,83,54.57,70.93a44.47,44.47,0,0,1,88.93,0c0,12-17.37,38.38-31.33,59.55-5,7.59-9.34,14.15-12,18.84A1.26,1.26,0,0,1,99,150ZM99,29a42,42,0,0,0-42,41.92C57.08,82.21,75,109.31,88,129.09c4.4,6.69,8.29,12.58,11,17.13,2.74-4.55,6.62-10.44,11-17.13C123.12,109.31,141,82.21,141,70.93A42,42,0,0,0,99,29Z"/><path class="cls-1" d="M99,95.67a27.24,27.24,0,1,1,27.25-27.24A27.27,27.27,0,0,1,99,95.67Zm0-52a24.72,24.72,0,1,0,24.73,24.72A24.76,24.76,0,0,0,99,43.71Z"/><path class="cls-1" d="M160.92,173.5H37.16a1.28,1.28,0,0,1-1-.5,1.26,1.26,0,0,1-.2-1.11l17.41-59.34a1.25,1.25,0,0,1,1.21-.9H76a1.26,1.26,0,0,1,1.06.58c3.69,5.8,7.4,11.43,11,16.88,4.41,6.68,8.29,12.56,11,17.11,2.74-4.55,6.61-10.43,11-17.11,3.59-5.45,7.3-11.08,11-16.88a1.26,1.26,0,0,1,1.06-.58h21.4a1.23,1.23,0,0,1,1.2.9l17.38,59.22a1.23,1.23,0,0,1,.09.47A1.25,1.25,0,0,1,160.92,173.5ZM38.84,171h120.4l-16.67-56.83H122.8c-3.58,5.62-7.17,11.06-10.64,16.33-5,7.59-9.33,14.14-12,18.83a1.26,1.26,0,0,1-2.18,0c-2.71-4.68-7-11.24-12-18.83-3.47-5.27-7.06-10.71-10.64-16.33H55.51Z"/><path class="cls-1" d="M148.91,134.09h-39.8a1.26,1.26,0,1,1,0-2.51h39.8a1.26,1.26,0,1,1,0,2.51Z"/><path class="cls-1" d="M85.08,128.19a1.44,1.44,0,0,1-.53-.11L54,114.05a1.26,1.26,0,0,1,1.05-2.29l30.51,14a1.26,1.26,0,0,1-.52,2.4Z"/><path class="cls-1" d="M113.64,127.22a1.27,1.27,0,0,1-1.15-.76,1.24,1.24,0,0,1,.65-1.65L143,111.75a1.27,1.27,0,0,1,1.66.65,1.26,1.26,0,0,1-.65,1.66l-29.87,13A1.25,1.25,0,0,1,113.64,127.22Z"/><path class="cls-1" d="M37.16,173.5a1.26,1.26,0,0,1-.69-2.31L91,135.85A1.26,1.26,0,1,1,92.32,138L37.84,173.3A1.22,1.22,0,0,1,37.16,173.5Z"/><path class="cls-1" d="M160.92,173.5a1.26,1.26,0,0,1-.67-.19l-55.07-34.44a1.26,1.26,0,0,1,1.34-2.14l55.06,34.45a1.26,1.26,0,0,1-.66,2.32Z"/><path class="cls-1" d="M99,173.5a1.26,1.26,0,0,1-1.26-1.22l-.71-24.76a1.26,1.26,0,1,1,2.51-.08l.71,24.77a1.25,1.25,0,0,1-1.22,1.29Z"/><path class="cls-1" d="M103.46,85.16H94.62a1.25,1.25,0,0,1-1.26-1.25V73.39H82.83a1.25,1.25,0,0,1-1.26-1.25V63.29A1.25,1.25,0,0,1,82.83,62H93.36V51.52a1.26,1.26,0,0,1,1.26-1.26h8.84a1.26,1.26,0,0,1,1.25,1.26V62h10.54a1.25,1.25,0,0,1,1.25,1.25v8.85a1.25,1.25,0,0,1-1.25,1.25H104.71V83.91A1.25,1.25,0,0,1,103.46,85.16Zm-7.58-2.51h6.32V72.14a1.25,1.25,0,0,1,1.26-1.26H114V64.55H103.46a1.25,1.25,0,0,1-1.26-1.26V52.78H95.88V63.29a1.26,1.26,0,0,1-1.26,1.26H84.09v6.33H94.62a1.26,1.26,0,0,1,1.26,1.26Z"/></svg>