<?xml version="1.0" encoding="utf-8"?>
<!-- Generator: Adobe Illustrator 24.0.0, SVG Export Plug-In . SVG Version: 6.00 Build 0)  -->
<svg version="1.1" id="Capa_1" xmlns="http://www.w3.org/2000/svg" xmlns:xlink="http://www.w3.org/1999/xlink" x="0px" y="0px"
	 viewBox="0 0 200 200" style="enable-background:new 0 0 200 200;" xml:space="preserve">
<style type="text/css">
	.st0{fill:none;stroke:#606060;stroke-width:4;stroke-miterlimit:10;}
</style>
<title>1</title>
<g id="pills_1_">
	<path class="st0" d="M92.6,162.8H47.2c-2.4,0-4.3-1.9-4.3-4.3V37.2c0-2.4,1.9-4.3,4.3-4.3h77.9c2.4,0,4.3,1.9,4.3,4.3v58.5"/>
	<line class="st0" x1="86.1" y1="41.5" x2="86.1" y2="154.1"/>
	<circle class="st0" cx="64.5" cy="54.5" r="6.5"/>
	<circle class="st0" cx="64.5" cy="97.8" r="6.5"/>
	<circle class="st0" cx="64.5" cy="141.1" r="6.5"/>
	<g>
		<line class="st0" x1="51.5" y1="76.2" x2="53.6" y2="76.2"/>
		<line class="st0" x1="62.3" y1="76.2" x2="64.5" y2="76.2"/>
		<line class="st0" x1="73.1" y1="76.2" x2="75.3" y2="76.2"/>
	</g>
	<g>
		<line class="st0" x1="51.5" y1="119.5" x2="53.6" y2="119.5"/>
		<line class="st0" x1="62.3" y1="119.5" x2="64.5" y2="119.5"/>
		<line class="st0" x1="73.1" y1="119.5" x2="75.3" y2="119.5"/>
	</g>
	<circle class="st0" cx="105.6" cy="54.5" r="6.5"/>
	<path class="st0" d="M109.9,93c-1.1-1-2.7-1.6-4.3-1.7c-3.6,0-6.5,2.9-6.5,6.5"/>
	<g>
		<line class="st0" x1="118.6" y1="76.2" x2="116.4" y2="76.2"/>
		<line class="st0" x1="107.8" y1="76.2" x2="105.6" y2="76.2"/>
		<line class="st0" x1="96.9" y1="76.2" x2="94.8" y2="76.2"/>
	</g>
	<g>
		<path class="st0" d="M131.6,123.8c0-1.7,0-3.2,0-4.3c0-9.6-7.8-17.3-17.3-17.3c-9.6,0-17.3,7.8-17.3,17.3c0,6,0,24.3,0,30.3
			c0,8.1,5.5,15.4,13,17.3"/>
		<line class="st0" x1="96.9" y1="134.6" x2="109.9" y2="134.6"/>
		<path class="st0" d="M105.6,119.5c0-4.8,3.9-8.7,8.7-8.7"/>
	</g>
	<g>
		<path class="st0" d="M129.4,167.1c-9.6,0-17.3-7.8-17.3-17.3c0-9.6,7.8-17.3,17.3-17.3c6,0,24.3,0,30.3,0
			c9.6,0,17.3,7.8,17.3,17.3c0,9.6-7.8,17.3-17.3,17.3C153.7,167.1,135.5,167.1,129.4,167.1z"/>
		<line class="st0" x1="144.6" y1="132.5" x2="144.6" y2="167.1"/>
		<path class="st0" d="M129.4,141.1c-4.8,0-8.7,3.9-8.7,8.7"/>
	</g>
</g>
</svg>
